<svg width="387" height="274" viewBox="0 0 387 274" fill="none" xmlns="http://www.w3.org/2000/svg">
<g clip-path="url(#clip0_486_805)">
<path d="M304.761 202.818H79.9161C76.5893 202.818 73.8901 200.108 73.8901 196.768V61.8288C73.8901 58.4884 76.5893 55.7783 79.9161 55.7783H304.824C308.151 55.7783 310.85 58.4884 310.85 61.8288V196.768C310.787 200.108 308.088 202.818 304.761 202.818Z" fill="#263238" stroke="#263238" stroke-width="1.16947" stroke-miterlimit="10" stroke-linecap="round" stroke-linejoin="round"/>
<path d="M296.476 194.751H88.1393C84.8124 194.751 82.1133 192.041 82.1133 188.7V69.8961C82.1133 66.5557 84.8124 63.8456 88.1393 63.8456H296.476C299.803 63.8456 302.502 66.5557 302.502 69.8961V188.7C302.502 192.041 299.803 194.751 296.476 194.751Z" fill="white" stroke="#263238" stroke-width="1.16947" stroke-miterlimit="10" stroke-linecap="round" stroke-linejoin="round"/>
<path fill-rule="evenodd" clip-rule="evenodd" d="M197.235 192.041H95.9854C93.9768 192.041 92.3447 190.402 92.3447 188.385V84.9594C92.3447 82.9425 93.9768 81.3038 95.9854 81.3038H197.235C199.244 81.3038 200.876 82.9425 200.876 84.9594V188.385C200.876 190.402 199.244 192.041 197.235 192.041Z" fill="#FFDB59"/>
<path d="M53.5524 98.8251C55.9444 98.8251 57.8836 96.878 57.8836 94.4762C57.8836 92.0745 55.9444 90.1274 53.5524 90.1274C51.1603 90.1274 49.2212 92.0745 49.2212 94.4762C49.2212 96.878 51.1603 98.8251 53.5524 98.8251Z" fill="#206CB5"/>
<path d="M46.522 86.0308C43.1323 88.93 41.8769 93.4679 43.0696 97.5016L46.9614 97.6277C45.5804 94.6654 46.2709 91.0099 48.8445 88.804C51.6692 86.472 55.7493 86.5981 58.3857 88.93L58.8251 84.8333C54.996 82.7535 50.0999 83.0686 46.522 86.0308Z" fill="#206CB5"/>
<path d="M40.4333 97.4385C39.3662 92.6485 40.9354 87.4803 44.9528 84.14C49.0329 80.6735 54.6195 80.1693 59.139 82.2492L59.5156 78.5306C53.929 76.4508 47.4636 77.3331 42.6303 81.4298C37.7969 85.4635 35.7882 91.6401 36.7298 97.3755L40.4333 97.4385Z" fill="#206CB5"/>
<path d="M362.824 87.4172C362.824 100.212 352.467 110.611 339.788 110.611C326.92 110.611 318.006 100.716 316.813 90.3164C315.997 83.4465 317.881 77.27 322.4 72.1018C326.982 66.8706 332.82 64.1605 339.788 64.1605C352.404 64.1605 362.95 74.4338 362.824 87.4172Z" fill="#2B6BB4"/>
<path d="M342.989 96.1149C340.981 96.1149 338.909 96.1149 336.901 96.1149C336.147 96.1149 335.896 95.8628 335.896 95.1695C335.896 91.9552 335.771 88.8039 335.959 85.5895C336.085 83.5727 336.901 81.6819 338.156 80.1062C339.035 79.0348 339.914 77.9633 340.918 76.9549C341.232 76.6398 341.42 76.2616 341.42 75.8205C341.42 75.2532 341.483 74.749 341.483 74.1818C341.483 73.4885 341.671 72.9212 342.299 72.6691C342.989 72.417 343.617 72.5431 344.182 73.0473C344.684 73.5515 344.935 74.1818 345.061 74.8751C345.5 76.5768 345.124 78.2154 344.433 79.7911C344.182 80.2953 343.994 80.8626 343.743 81.3668C343.554 81.6819 343.68 81.8079 343.994 81.871C344.119 81.871 344.307 81.871 344.496 81.871C346.316 81.871 348.137 81.871 349.957 81.871C350.961 81.871 351.652 82.3752 351.84 83.1945C352.091 84.1399 351.714 85.2744 350.898 85.6525C350.522 85.8416 350.522 85.9046 350.836 86.1567C351.526 86.5979 351.966 87.2282 351.84 88.1106C351.714 88.8039 351.401 89.245 350.773 89.4341C350.647 89.4971 350.459 89.4341 350.459 89.6232C350.459 89.8123 350.647 89.8123 350.71 89.8753C351.589 90.5056 351.714 92.2703 350.396 92.8375C350.145 92.9636 350.02 93.0266 350.271 93.2787C350.836 93.8459 350.836 94.5392 350.585 95.1695C350.334 95.7998 349.769 95.9888 349.078 95.9888C347.069 96.0519 345.061 96.0519 342.989 96.1149C342.989 96.0519 342.989 96.0519 342.989 96.1149Z" fill="white"/>
<path d="M333.448 97.9425C331.753 97.9425 330.058 97.9425 328.426 97.9425C327.924 97.9425 327.673 97.6904 327.61 97.1862C327.61 96.9341 327.61 96.682 327.61 96.4299C327.61 92.9004 327.61 89.371 327.61 85.7785C327.61 84.8961 327.798 84.707 328.677 84.707C330.184 84.707 331.69 84.707 333.197 84.707C333.824 84.707 334.138 84.9591 334.138 85.5264C334.138 89.2449 334.138 92.9635 334.138 96.682V96.745C334.013 96.745 334.075 96.8081 334.138 96.8711C334.138 97.2492 334.138 97.6274 333.699 97.8165C333.699 97.6904 333.636 97.5644 333.511 97.6274C333.322 97.6904 333.448 97.8165 333.448 97.9425Z" fill="white"/>
<path d="M342.801 200.55L343.931 214.857C343.931 217 347.069 218.764 350.961 218.764C354.853 218.764 357.991 217 357.991 214.857L359.121 200.55H342.801Z" fill="#263238"/>
<path d="M359.058 200.549C359.058 203.07 355.417 205.087 350.961 205.087C346.504 205.087 342.863 203.07 342.863 200.549C342.863 198.028 346.504 196.011 350.961 196.011C355.417 196.011 359.058 198.028 359.058 200.549Z" fill="#263238"/>
<path d="M323.844 145.023C325.602 145.78 329.995 145.717 329.995 145.717C330.058 145.717 329.054 142.88 328.991 142.691C328.05 140.674 325.037 137.397 322.589 137.712C320.831 137.964 319.827 139.729 320.203 141.431C320.58 143.069 322.275 144.33 323.844 145.023Z" fill="#206CB5"/>
<path d="M325.287 157.692C327.108 157.944 331 156.809 331.313 156.746C331.941 158.952 332.757 161.095 333.699 163.301C334.264 164.562 334.829 165.759 335.394 167.02C335.017 166.515 334.703 166.011 334.64 165.948C333.197 164.246 329.43 161.851 327.108 162.86C325.476 163.553 324.974 165.507 325.79 167.02C326.606 168.532 328.677 169.352 330.309 169.541C331.941 169.793 335.331 168.91 336.147 168.658C336.398 169.099 336.586 169.604 336.837 170.045C337.967 172.314 339.097 174.52 340.164 176.789C340.541 177.545 340.855 178.364 341.231 179.121C340.917 178.679 340.666 178.301 340.604 178.238C339.16 176.537 335.394 174.142 333.071 175.15C331.439 175.843 330.937 177.797 331.753 179.31C332.569 180.822 334.64 181.642 336.272 181.831C337.842 182.083 340.917 181.264 341.984 180.948C342.298 181.768 342.612 182.587 342.926 183.406C343.114 183.974 343.303 184.478 343.428 185.045C343.554 185.612 343.742 186.18 343.868 186.684C344.119 187.755 344.37 188.827 344.621 189.898C344.809 190.654 344.935 191.348 345.06 192.041C344.684 191.285 343.993 189.709 343.868 189.583C342.675 187.692 339.285 184.73 336.9 185.36C335.142 185.801 334.389 187.692 334.954 189.268C335.582 190.907 337.465 191.978 339.034 192.482C340.792 192.986 344.621 192.545 345.123 192.482C345.374 193.617 345.562 194.751 345.751 195.823C346.19 198.155 346.504 200.297 346.692 202.062H348.324C348.011 200.234 347.697 198.028 347.194 195.57C346.943 194.373 346.692 193.175 346.378 191.852C346.692 191.726 348.324 191.096 349.768 190.276C351.024 191.663 354.288 193.302 354.727 193.491C354.288 194.562 353.848 195.633 353.409 196.642C352.53 198.722 351.651 200.55 350.898 202.125H352.656C353.283 200.676 354.037 199.037 354.79 197.209C355.229 196.075 355.731 194.94 356.171 193.68C356.61 193.806 360.439 194.562 362.26 194.184C363.892 193.806 365.837 192.923 366.528 191.285C367.218 189.709 366.591 187.755 364.896 187.188C362.573 186.369 358.933 189.079 357.614 190.843C357.552 190.97 356.798 192.167 356.359 192.986C356.547 192.482 356.736 191.978 356.924 191.474C357.301 190.465 357.614 189.394 357.991 188.322C358.179 187.755 358.305 187.251 358.493 186.684C358.682 186.117 358.807 185.549 358.933 184.982C359.246 183.658 359.498 182.272 359.749 180.885C360.627 181.2 363.829 182.335 365.524 182.209C367.156 182.083 369.227 181.516 370.169 180.003C371.11 178.553 370.796 176.537 369.164 175.717C366.967 174.583 363.013 176.663 361.443 178.238C361.318 178.364 360.376 179.562 359.811 180.255C359.937 179.436 360.062 178.553 360.188 177.734C360.502 175.276 360.753 172.755 360.941 170.234C361.004 169.478 361.067 168.721 361.192 167.965C361.506 168.091 365.273 169.478 367.156 169.352C368.788 169.226 370.859 168.658 371.801 167.146C372.742 165.696 372.428 163.679 370.796 162.86C368.599 161.725 364.645 163.805 363.076 165.381C362.95 165.507 361.506 167.272 361.192 167.776C361.381 166.074 361.569 164.435 361.82 162.797C362.197 160.528 362.636 158.322 363.264 156.242C363.389 156.305 367.344 157.818 369.227 157.629C370.859 157.503 372.931 156.872 373.872 155.423C374.814 153.973 374.5 151.956 372.868 151.137C370.671 150.003 366.716 152.082 365.147 153.658C365.021 153.784 363.452 155.738 363.201 156.116C363.264 155.99 363.264 155.864 363.327 155.738C364.017 153.532 364.959 151.452 365.9 149.498C366.465 148.364 367.093 147.355 367.658 146.347C368.348 146.725 371.612 148.301 373.307 148.364C374.939 148.427 377.073 148.049 378.203 146.725C379.27 145.402 379.208 143.385 377.701 142.376C375.63 140.99 371.487 142.628 369.729 144.015C369.666 144.078 368.788 144.96 368.16 145.591C368.411 145.149 368.725 144.708 368.976 144.267C370.043 142.691 371.047 141.305 371.989 140.107C372.554 139.414 373.056 138.847 373.495 138.28C374.374 138.28 377.889 138.154 379.396 137.46C380.902 136.767 382.597 135.443 382.974 133.742C383.351 132.04 382.283 130.338 380.526 130.086C378.078 129.834 375.128 133.238 374.249 135.254C374.186 135.443 373.244 138.343 373.307 138.343H373.37C372.931 138.847 372.428 139.477 371.863 140.107C370.922 141.305 369.792 142.628 368.725 144.204C367.658 145.78 366.528 147.481 365.461 149.372C364.456 151.263 363.452 153.343 362.699 155.612V155.675C362.699 154.919 362.699 152.902 362.636 152.776C362.322 150.57 360.502 146.473 358.054 146.032C356.296 145.717 354.79 147.103 354.664 148.805C354.539 150.57 355.794 152.334 357.049 153.406C358.43 154.666 362.322 155.864 362.636 155.927C361.946 158.07 361.443 160.339 361.004 162.671C360.753 163.994 360.565 165.381 360.376 166.704C360.376 166.074 360.376 165.507 360.314 165.444C360 163.238 358.179 159.141 355.731 158.7C353.974 158.385 352.467 159.772 352.342 161.473C352.216 163.238 353.472 165.003 354.727 166.074C355.982 167.209 359.246 168.28 360.125 168.595C360.063 169.099 360 169.604 359.937 170.171C359.623 172.692 359.372 175.15 358.995 177.608C358.87 178.49 358.744 179.31 358.556 180.129C358.556 179.562 358.556 179.121 358.556 178.995C358.242 176.789 356.422 172.692 353.974 172.251C352.216 171.936 350.71 173.322 350.584 175.024C350.459 176.789 351.714 178.553 352.969 179.625C354.162 180.696 357.175 181.705 358.179 182.083C357.991 182.965 357.803 183.785 357.614 184.604C357.426 185.171 357.363 185.738 357.175 186.243C356.987 186.81 356.798 187.314 356.673 187.881C356.296 188.89 355.92 189.961 355.543 190.97C355.292 191.663 355.041 192.293 354.727 192.986C354.853 192.104 355.104 190.465 355.104 190.339C355.166 188.89 354.601 186.432 353.597 184.793C353.597 184.604 353.597 184.352 353.534 184.163C353.283 182.461 351.651 181.2 349.956 181.642C347.571 182.272 346.065 186.495 345.939 188.701C345.939 188.827 346.002 190.276 346.065 191.159C345.939 190.654 345.814 190.15 345.688 189.583C345.437 188.512 345.186 187.44 344.872 186.306C344.684 185.738 344.558 185.234 344.37 184.667C344.244 184.1 343.993 183.532 343.805 182.965C343.303 181.642 342.801 180.381 342.236 179.058C343.177 178.805 346.441 177.986 347.759 176.978C349.078 175.969 350.459 174.331 350.459 172.566C350.459 170.864 349.078 169.352 347.32 169.541C344.872 169.793 342.738 173.763 342.298 175.906C342.298 176.032 342.11 177.671 342.047 178.49C341.671 177.734 341.357 176.915 340.98 176.158C339.85 173.952 338.72 171.684 337.528 169.478C337.151 168.784 336.837 168.091 336.461 167.461C336.775 167.398 340.729 166.452 342.173 165.318C343.491 164.309 344.872 162.671 344.872 160.906C344.872 159.204 343.491 157.692 341.733 157.881C339.285 158.133 337.151 162.104 336.712 164.246C336.649 164.436 336.461 166.704 336.461 167.272C335.707 165.759 334.954 164.246 334.264 162.734C333.322 160.654 332.506 158.574 331.816 156.431C331.941 156.368 336.084 155.486 337.591 154.288C338.909 153.28 340.29 151.641 340.29 149.876C340.29 148.175 338.909 146.662 337.151 146.851C334.703 147.103 332.569 151.074 332.129 153.217C332.067 153.406 331.878 155.864 331.878 156.305C331.816 156.179 331.816 156.053 331.753 155.927C331.062 153.658 330.749 151.452 330.497 149.309C330.372 148.049 330.309 146.914 330.246 145.717C331 145.591 334.578 145.149 336.084 144.267C337.528 143.385 339.034 141.935 339.223 140.17C339.411 138.469 338.218 136.83 336.398 136.83C333.95 136.83 331.376 140.486 330.686 142.628C330.623 142.754 330.372 143.952 330.246 144.834C330.246 144.33 330.246 143.763 330.246 143.259C330.246 141.368 330.372 139.666 330.497 138.154C330.56 137.271 330.686 136.515 330.749 135.759C331.439 135.254 334.326 133.238 335.205 131.788C336.084 130.401 336.775 128.321 336.147 126.683C335.519 125.107 333.699 124.225 332.129 125.044C329.933 126.179 329.368 130.653 329.681 132.859C329.744 133.048 330.56 135.948 330.56 135.948H330.623C330.497 136.641 330.435 137.397 330.372 138.217C330.246 139.729 330.058 141.494 329.995 143.385C329.932 145.276 329.933 147.355 330.121 149.498C330.309 151.641 330.623 153.91 331.251 156.242V156.305C330.874 155.675 329.681 154.036 329.619 153.91C328.175 152.208 324.409 149.813 322.086 150.822C320.454 151.515 319.952 153.469 320.768 154.982C321.647 156.683 323.655 157.44 325.287 157.692Z" fill="#206CB5"/>
<path d="M367.846 145.969C367.909 145.969 368.662 143.07 368.662 142.881C368.976 140.675 368.285 136.263 366.026 135.191C364.394 134.435 362.636 135.38 362.008 136.956C361.381 138.595 362.197 140.612 363.075 141.998C364.143 143.637 367.846 145.969 367.846 145.969Z" fill="#206CB5"/>
<path d="M357.301 200.549C357.301 202.503 354.413 204.142 350.898 204.142C347.383 204.142 344.495 202.566 344.495 200.549C344.495 198.532 347.383 196.957 350.898 196.957C354.476 196.957 357.301 198.532 357.301 200.549Z" fill="#206CB5"/>
<path d="M24.929 187.377L26.0588 201.684C26.0588 203.827 29.1974 205.591 33.0892 205.591C36.981 205.591 40.1195 203.827 40.1195 201.684L41.2494 187.377H24.929Z" fill="url(#paint0_linear_486_805)"/>
<path d="M41.1863 187.377C41.1863 189.898 37.5456 191.915 33.0889 191.915C28.6322 191.915 24.9915 189.898 24.9915 187.377C24.9915 184.856 28.6322 182.839 33.0889 182.839C37.5456 182.839 41.1863 184.856 41.1863 187.377Z" fill="#263238"/>
<path d="M39.4915 187.377C39.4915 189.331 36.6041 190.969 33.0889 190.969C29.5737 190.969 26.6863 189.394 26.6863 187.377C26.6863 185.36 29.5737 183.784 33.0889 183.784C36.6041 183.784 39.4915 185.423 39.4915 187.377Z" fill="#206CB5"/>
<path d="M9.92656 135.758C11.5586 136.452 15.5759 136.389 15.5759 136.389C15.6387 136.389 14.6971 133.742 14.6344 133.616C13.7556 131.788 10.9937 128.763 8.73391 129.015C7.10187 129.204 6.22308 130.842 6.5997 132.418C6.97633 133.994 8.5456 135.128 9.92656 135.758Z" fill="#263238"/>
<path d="M11.3076 147.355C13.0024 147.607 16.5804 146.536 16.8315 146.473C17.3964 148.49 18.1497 150.507 18.9657 152.46C19.4678 153.595 19.97 154.729 20.535 155.864C20.2211 155.36 19.9072 154.982 19.8445 154.919C18.5263 153.406 15.0111 151.2 12.9397 152.082C11.4332 152.713 10.9938 154.54 11.747 155.927C12.5003 157.313 14.3834 158.07 15.8899 158.259C17.3964 158.511 20.4722 157.629 21.2882 157.44C21.4765 157.881 21.7276 158.322 21.9159 158.763C22.9202 160.843 23.9874 162.86 24.9289 164.94C25.2428 165.633 25.5566 166.389 25.8705 167.083C25.5566 166.641 25.3055 166.326 25.3055 166.263C23.9874 164.751 20.4722 162.545 18.4007 163.427C16.8942 164.057 16.4548 165.885 17.2081 167.272C17.9613 168.658 19.8445 169.415 21.351 169.604C22.7947 169.793 25.6194 169.099 26.6237 168.784C26.9376 169.541 27.1887 170.297 27.4398 171.053C27.6281 171.557 27.8164 172.062 27.9419 172.566C28.0675 173.07 28.2558 173.574 28.3813 174.078C28.6324 175.024 28.8835 176.032 29.0718 177.041C29.1973 177.734 29.3229 178.364 29.4484 178.995C29.1346 178.301 28.4441 176.852 28.3813 176.789C27.3142 175.087 24.1757 172.377 21.9787 172.944C20.4094 173.322 19.6562 175.087 20.2211 176.536C20.786 178.049 22.4809 178.995 23.9246 179.499C25.4939 180.003 29.0718 179.562 29.5112 179.499C29.6995 180.57 29.9506 181.579 30.0761 182.587C30.4528 184.73 30.7666 186.684 30.9549 188.322H32.4614C32.2103 186.621 31.8337 184.604 31.3943 182.335C31.206 181.263 30.9549 180.129 30.6411 178.931C30.8921 178.805 32.3986 178.238 33.7796 177.482C34.9723 178.742 37.9225 180.255 38.2991 180.444C37.9225 181.453 37.4831 182.398 37.1065 183.343C36.2904 185.234 35.4744 186.936 34.7839 188.385H36.416C36.9809 187.062 37.6714 185.549 38.3619 183.848C38.8013 182.839 39.1779 181.705 39.6173 180.633C40.0567 180.696 43.5719 181.453 45.2039 181.074C46.7104 180.759 48.468 179.877 49.1585 178.427C49.7862 176.978 49.2212 175.213 47.652 174.709C45.5178 173.952 42.1909 176.41 40.9983 178.112C40.9355 178.238 40.245 179.373 39.8684 180.066C40.0567 179.625 40.1822 179.184 40.3706 178.679C40.6844 177.734 41.061 176.789 41.3749 175.78C41.5004 175.276 41.6887 174.772 41.8143 174.268C42.0026 173.763 42.0654 173.196 42.1909 172.692C42.5048 171.431 42.6931 170.171 42.9442 168.91C43.7602 169.225 46.7104 170.234 48.2169 170.108C49.7234 169.982 51.6065 169.415 52.4853 168.091C53.3641 166.767 53.0503 164.94 51.6065 164.183C49.5979 163.112 45.9572 165.066 44.5134 166.515C44.4507 166.578 43.5091 167.776 43.0069 168.406C43.1325 167.65 43.258 166.893 43.3208 166.074C43.5719 163.805 43.823 161.536 44.0113 159.204C44.074 158.511 44.1368 157.818 44.1996 157.124C44.5134 157.25 47.9658 158.511 49.6606 158.385C51.1671 158.259 53.0503 157.692 53.9291 156.368C54.8079 155.045 54.494 153.217 53.0503 152.46C51.0416 151.389 47.4009 153.343 45.9572 154.792C45.8316 154.919 44.5134 156.557 44.1996 156.998C44.3879 155.423 44.5134 153.91 44.7645 152.397C45.0784 150.318 45.5178 148.301 46.0827 146.347C46.2082 146.41 49.849 147.797 51.5438 147.67C53.0503 147.544 54.9334 146.977 55.8122 145.654C56.691 144.33 56.3771 142.502 54.9334 141.746C52.9247 140.675 49.284 142.628 47.8403 144.078C47.7147 144.204 46.3338 145.969 46.0827 146.347C46.1455 146.221 46.1455 146.095 46.1455 145.969C46.7732 143.889 47.652 141.998 48.5308 140.233C49.0329 139.225 49.5979 138.28 50.1628 137.397C50.7905 137.712 53.8035 139.162 55.3728 139.225C56.8793 139.288 58.8252 138.91 59.8295 137.712C60.8339 136.515 60.7083 134.624 59.3901 133.742C57.507 132.481 53.678 133.994 52.1087 135.254C52.0459 135.317 51.2299 136.137 50.665 136.704C50.9161 136.326 51.1671 135.885 51.4182 135.506C52.3598 134.057 53.3014 132.796 54.1801 131.725C54.6823 131.095 55.1217 130.527 55.5611 130.023C56.3771 130.023 59.5784 129.897 60.9594 129.267C62.3404 128.637 63.9096 127.439 64.2235 125.8C64.5373 124.225 63.5958 122.649 61.9637 122.46C59.704 122.208 57.0048 125.359 56.1888 127.187C56.126 127.376 55.31 130.023 55.31 130.023H55.3728C54.9334 130.527 54.494 131.032 53.9918 131.599C53.113 132.67 52.1087 133.931 51.1044 135.38C50.1 136.83 49.0957 138.343 48.1541 140.107C47.2126 141.872 46.271 143.763 45.6433 145.843V145.906C45.6433 145.212 45.6433 143.385 45.5805 143.196C45.3295 141.179 43.6346 137.397 41.3749 137.019C39.7428 136.704 38.4247 137.964 38.2991 139.54C38.1736 141.179 39.3034 142.754 40.4333 143.763C41.6887 144.897 45.2667 146.032 45.5178 146.095C44.8901 148.049 44.3879 150.192 44.0113 152.334C43.823 153.532 43.6346 154.792 43.4463 156.053C43.4463 155.486 43.4463 154.982 43.4463 154.855C43.1952 152.839 41.5004 149.057 39.2407 148.679C37.6086 148.364 36.2904 149.624 36.1649 151.2C36.0394 152.839 37.1692 154.414 38.2991 155.423C39.429 156.431 42.442 157.44 43.258 157.692C43.1952 158.196 43.1325 158.637 43.0697 159.141C42.8186 161.41 42.5048 163.742 42.1909 165.948C42.0654 166.767 41.9398 167.524 41.8143 168.28C41.8143 167.776 41.8143 167.335 41.8143 167.272C41.5632 165.255 39.8684 161.473 37.6086 161.095C35.9766 160.78 34.6584 162.04 34.4701 163.616C34.3445 165.255 35.4744 166.83 36.6043 167.839C37.6714 168.847 40.4333 169.793 41.4377 170.108C41.2493 170.927 41.1238 171.683 40.9355 172.44C40.8099 172.944 40.6844 173.448 40.4961 173.952C40.3078 174.457 40.1822 174.961 39.9939 175.465C39.6801 176.41 39.3034 177.356 38.9268 178.301C38.6757 178.931 38.4247 179.562 38.1736 180.129C38.2991 179.373 38.4874 177.797 38.4874 177.671C38.4874 176.284 38.048 174.141 37.1065 172.566C37.1065 172.377 37.1065 172.188 37.0437 171.999C36.7926 170.423 35.3489 169.288 33.7796 169.73C31.5826 170.297 30.2017 174.205 30.0761 176.221C30.0761 176.347 30.1389 177.671 30.2017 178.49C30.0761 177.986 30.0134 177.545 29.8878 177.041C29.6367 176.032 29.3856 175.087 29.1346 174.078C29.009 173.574 28.8207 173.07 28.6952 172.566C28.5696 172.062 28.3185 171.557 28.193 170.99C27.7536 169.793 27.2514 168.595 26.7493 167.398C27.6281 167.209 30.6411 166.452 31.8337 165.507C33.0264 164.562 34.3445 163.049 34.2818 161.473C34.2818 159.898 33.0264 158.511 31.3943 158.7C29.1346 158.952 27.1887 162.545 26.7493 164.562C26.7493 164.688 26.561 166.137 26.561 166.957C26.2471 166.263 25.9333 165.507 25.5566 164.814C24.5523 162.797 23.4852 160.717 22.3553 158.7C22.0415 158.07 21.7276 157.44 21.351 156.809C21.6648 156.746 25.2428 155.927 26.6237 154.855C27.8164 153.91 29.1346 152.397 29.0718 150.822C29.0718 149.246 27.8164 147.86 26.1843 148.049C23.9246 148.301 21.9787 151.893 21.5393 153.91C21.5393 154.036 21.2882 156.179 21.2882 156.683C20.5977 155.297 19.9072 153.91 19.2168 152.524C18.338 150.633 17.5847 148.679 17.0198 146.788C17.1453 146.725 20.9116 145.906 22.2925 144.834C23.4852 143.889 24.8034 142.376 24.7406 140.801C24.7406 139.225 23.4852 137.838 21.8531 138.027C19.5934 138.28 17.6475 141.872 17.2081 143.889C17.1453 144.015 16.957 146.347 16.957 146.725C16.8942 146.599 16.8942 146.473 16.8315 146.41C16.2038 144.33 15.8899 142.25 15.7016 140.296C15.5761 139.162 15.5133 138.091 15.5133 137.019C16.2038 136.956 19.5306 136.515 20.8488 135.696C22.167 134.876 23.6107 133.553 23.7363 131.914C23.9246 130.338 22.7947 128.826 21.1627 128.826C18.9029 128.826 16.5176 132.229 15.8899 134.12C15.8271 134.246 15.6388 135.317 15.4505 136.137C15.4505 135.632 15.4505 135.191 15.4505 134.687C15.4505 132.985 15.5761 131.347 15.6388 129.96C15.7016 129.141 15.7644 128.448 15.8899 127.754C16.5176 127.313 19.154 125.422 19.97 124.099C20.786 122.775 21.4137 120.947 20.786 119.435C20.2211 117.985 18.5263 117.166 17.0826 117.922C15.0739 118.994 14.5089 123.09 14.8856 125.044C14.8856 125.233 15.7016 127.88 15.7016 127.88H15.7644C15.7016 128.511 15.5761 129.204 15.5133 129.96C15.3877 131.347 15.2622 132.922 15.1994 134.687C15.1367 136.452 15.1367 138.28 15.325 140.296C15.5133 142.313 15.7644 144.393 16.3293 146.473V146.536C15.9527 145.969 14.9483 144.456 14.8228 144.33C13.5046 142.817 9.98945 140.612 7.91801 141.494C6.41151 142.124 5.97211 143.952 6.72536 145.339C7.98078 146.473 9.80113 147.166 11.3076 147.355Z" fill="#263238"/>
<path d="M50.3508 136.641C50.4136 136.641 51.1041 133.994 51.1041 133.805C51.3552 131.788 50.7275 127.691 48.7188 126.746C47.2123 126.052 45.5803 126.872 45.0781 128.384C44.5131 129.897 45.2036 131.788 46.0196 133.048C46.9612 134.498 50.3508 136.641 50.3508 136.641Z" fill="#263238"/>
<path d="M225.168 226.453L211.547 233.197L213.743 248.323L203.135 237.357L189.514 244.1L196.544 230.613L185.999 219.709L200.938 222.293L208.031 208.806L210.166 223.869L225.168 226.453Z" fill="url(#paint1_linear_486_805)"/>
<path d="M194.222 254.5L183.802 259.605L185.497 271.139L177.399 262.819L166.979 267.987L172.378 257.651L164.28 249.332L175.705 251.285L181.103 240.949L182.798 252.483L194.222 254.5Z" fill="url(#paint2_linear_486_805)"/>
<path d="M158.945 244.227L152.856 247.252L153.86 253.933L149.152 249.08L143.064 252.042L146.265 246.054L141.557 241.201L148.148 242.399L151.287 236.411L152.291 243.092L158.945 244.227Z" fill="url(#paint3_linear_486_805)"/>
<path d="M59.516 227.335C66.2761 227.335 71.7563 221.833 71.7563 215.045C71.7563 208.258 66.2761 202.755 59.516 202.755C52.7558 202.755 47.2756 208.258 47.2756 215.045C47.2756 221.833 52.7558 227.335 59.516 227.335Z" fill="url(#paint4_linear_486_805)"/>
<path d="M65.165 213.281C63.4702 212.146 61.2104 212.587 60.0806 214.289C61.2104 212.587 60.771 210.318 59.0762 209.184C57.3814 208.049 55.1217 208.491 53.9918 210.192C51.4182 214.037 55.3727 221.348 55.3727 221.348C55.3727 221.348 63.5957 222.293 66.1693 218.449C67.2992 216.747 66.797 214.415 65.165 213.281Z" fill="white"/>
<path d="M254.545 176.536C255.235 177.608 256.428 178.112 257.432 177.419L260.822 174.898L269.924 187.314L251.281 201.054L243.623 190.465L248.644 186.684C250.025 185.675 250.653 183.911 250.214 182.209C250.214 182.209 249.147 178.112 246.447 174.078C244.627 171.305 249.9 169.478 254.545 176.536Z" fill="#FDC286"/>
<path d="M264.714 171.998L257.997 176.914L260.383 180.192L267.099 175.276C267.978 174.646 268.166 173.385 267.538 172.44C266.848 171.557 265.593 171.368 264.714 171.998Z" fill="#FDC286"/>
<path d="M266.722 175.528L260.006 180.507L262.391 183.784L269.108 178.805C269.986 178.112 270.175 176.852 269.547 175.969C268.919 175.024 267.664 174.835 266.722 175.528Z" fill="#FDC286"/>
<path d="M268.606 179.184L262.203 183.91L264.463 186.999L270.865 182.272C271.744 181.642 271.932 180.444 271.305 179.562C270.677 178.742 269.484 178.553 268.606 179.184Z" fill="#FDC286"/>
<path d="M270.049 182.902L264.337 187.125L266.346 189.898L272.058 185.675C272.811 185.108 273 184.036 272.435 183.28C271.87 182.524 270.803 182.335 270.049 182.902Z" fill="#FDC286"/>
<path d="M241.117 187.32L229.43 195.937L241.505 212.447L253.192 203.829L241.117 187.32Z" fill="#579CD5"/>
<path d="M248.945 198.086L237.258 206.703L241.494 212.494L253.181 203.877L248.945 198.086Z" fill="#388DCC"/>
<path d="M252.325 202.764L256.827 199.443L246.424 185.22L241.921 188.54L252.325 202.764Z" fill="#3B5EAB"/>
<path d="M252.342 202.699L256.845 199.379L253.464 194.756L248.961 198.076L252.342 202.699Z" fill="#20438F"/>
<path d="M139.8 21.3029C139.8 22.4374 138.858 23.3828 137.728 23.3828C136.599 23.3828 135.657 22.4374 135.657 21.3029C135.657 20.1684 136.599 19.223 137.728 19.223C138.858 19.223 139.8 20.1684 139.8 21.3029Z" fill="#579CD5"/>
<path d="M162.523 30.7567C162.523 31.8912 161.581 32.8366 160.451 32.8366C159.321 32.8366 158.38 31.8912 158.38 30.7567C158.38 29.6223 159.321 28.6769 160.451 28.6769C161.581 28.6769 162.523 29.6223 162.523 30.7567Z" fill="#579CD5"/>
<path d="M232.575 32.8367C232.575 33.9712 231.633 34.9166 230.504 34.9166C229.374 34.9166 228.432 33.9712 228.432 32.8367C228.432 31.7022 229.374 30.7568 230.504 30.7568C231.633 30.7568 232.575 31.7022 232.575 32.8367Z" fill="#579CD5"/>
<path d="M256.491 250.466C256.491 251.601 255.549 252.546 254.419 252.546C253.289 252.546 252.348 251.601 252.348 250.466C252.348 249.332 253.289 248.386 254.419 248.386C255.549 248.449 256.491 249.332 256.491 250.466Z" fill="#579CD5"/>
<path d="M284.612 230.361C284.612 231.495 283.67 232.441 282.54 232.441C281.41 232.441 280.469 231.495 280.469 230.361C280.469 229.226 281.41 228.281 282.54 228.281C283.733 228.281 284.612 229.226 284.612 230.361Z" fill="#579CD5"/>
<path d="M28.7576 228.281C28.7576 229.416 27.8161 230.361 26.6862 230.361C25.5563 230.361 24.6147 229.416 24.6147 228.281C24.6147 227.147 25.5563 226.201 26.6862 226.201C27.8161 226.201 28.7576 227.147 28.7576 228.281Z" fill="#579CD5"/>
<path d="M206.525 18.0254L207.153 19.2229C207.78 20.4204 208.722 21.4288 209.915 21.996L211.107 22.6263C211.86 23.0044 211.86 24.1389 211.107 24.5171L209.915 25.1473C208.722 25.7776 207.718 26.723 207.153 27.9205L206.525 29.118C206.148 29.8743 205.018 29.8743 204.642 29.118L204.014 27.9205C203.386 26.723 202.445 25.7146 201.252 25.1473L200.06 24.5171C199.306 24.1389 199.306 23.0044 200.06 22.6263L201.252 21.996C202.445 21.3658 203.449 20.4204 204.014 19.2229L204.642 18.0254C205.018 17.2691 206.148 17.2691 206.525 18.0254Z" fill="url(#paint5_linear_486_805)"/>
<path d="M325.915 215.865L326.543 217.062C327.17 218.26 328.112 219.268 329.304 219.835L330.497 220.466C331.25 220.844 331.25 221.978 330.497 222.356L329.304 222.987C328.112 223.617 327.107 224.562 326.543 225.76L325.915 226.957C325.538 227.714 324.408 227.714 324.032 226.957L323.404 225.76C322.776 224.562 321.835 223.554 320.642 222.987L319.449 222.356C318.696 221.978 318.696 220.844 319.449 220.466L320.642 219.835C321.835 219.205 322.839 218.26 323.404 217.062L324.032 215.865C324.471 215.045 325.538 215.045 325.915 215.865Z" fill="#FFDB59"/>
<path d="M67.4874 240.571L68.1151 241.768C68.7428 242.966 69.6843 243.974 70.877 244.542L72.0696 245.172C72.8229 245.55 72.8229 246.684 72.0696 247.063L70.877 247.693C69.6843 248.323 68.68 249.269 68.1151 250.466L67.4874 251.664C67.1107 252.42 65.9809 252.42 65.6042 251.664L64.9765 250.466C64.3488 249.269 63.4073 248.26 62.2146 247.693L61.022 247.063C60.2687 246.684 60.2687 245.55 61.022 245.172L62.2146 244.542C63.4073 243.911 64.4116 242.966 64.9765 241.768L65.6042 240.571C66.0436 239.752 67.1107 239.752 67.4874 240.571Z" fill="#2B6BB4"/>
<path d="M22.6065 61.5766L23.2342 62.7741C23.8619 63.9716 24.8035 64.9801 25.9961 65.5473L27.1888 66.1775C27.942 66.5557 27.942 67.6902 27.1888 68.0683L25.9961 68.6986C24.8035 69.3289 23.7992 70.2743 23.2342 71.4718L22.6065 72.6693C22.2299 73.4256 21.1 73.4256 20.7234 72.6693L20.0957 71.4718C19.468 70.2743 18.5264 69.2658 17.3338 68.6986L16.1411 68.0683C15.3879 67.6902 15.3879 66.5557 16.1411 66.1775L17.3338 65.5473C18.5264 64.917 19.5307 63.9716 20.0957 62.7741L20.7234 61.5766C21.1628 60.8203 22.2299 60.8203 22.6065 61.5766Z" fill="#FEBC11"/>
<path d="M153.672 194.184L154.865 175.339C154.865 175.339 155.681 178.553 156.246 179.814C156.873 181.011 169.114 175.339 169.114 175.339C169.114 175.339 165.912 153.469 163.904 145.591C161.895 137.712 161.267 127.376 159.447 126.746C157.627 126.115 134.841 115.401 134.276 115.401C133.648 115.401 121.408 116.598 121.408 116.598L101.447 128.763L104.46 194.121H153.672V194.184Z" fill="url(#paint6_linear_486_805)" stroke="#263238" stroke-width="1.16947" stroke-miterlimit="10" stroke-linecap="round" stroke-linejoin="round"/>
<path d="M137.854 143.637C137.854 144.33 137.791 144.96 137.728 145.591" stroke="#263238" stroke-width="1.16947" stroke-miterlimit="10" stroke-linecap="round" stroke-linejoin="round"/>
<path d="M136.661 126.179C136.661 126.179 137.791 133.679 137.917 140.738" stroke="#263238" stroke-width="1.16947" stroke-miterlimit="10" stroke-linecap="round" stroke-linejoin="round"/>
<path d="M152.605 141.935L152.668 138.721" stroke="#263238" stroke-width="1.16947" stroke-miterlimit="10" stroke-linecap="round" stroke-linejoin="round"/>
<path d="M151.977 174.141L152.542 144.33" stroke="#263238" stroke-width="1.16947" stroke-miterlimit="10" stroke-linecap="round" stroke-linejoin="round"/>
<path d="M171.624 194.184L170.181 181.894L156.371 184.541L161.079 194.184H171.624Z" fill="white" stroke="#263238" stroke-width="1.16947" stroke-miterlimit="10" stroke-linecap="round" stroke-linejoin="round"/>
<path d="M154.174 178.805C154.174 178.805 157.25 177.482 161.204 175.087C165.159 172.692 168.862 171.999 169.992 174.015C171.059 175.969 173.507 181.515 172.629 182.398C171.75 183.28 158.819 187.44 157.501 187.44C156.183 187.44 153.797 183.028 153.797 183.028C153.797 183.028 153.295 181.011 154.174 178.805Z" fill="url(#paint7_linear_486_805)" stroke="#263238" stroke-width="1.16947" stroke-miterlimit="10" stroke-linecap="round" stroke-linejoin="round"/>
<path d="M123.793 110.8C123.793 110.8 121.533 112.628 120.78 113.825C119.776 115.464 119.148 118.3 119.148 118.3L127.873 130.464L133.334 121.956L135.343 120.758L144.005 126.619C144.005 126.619 140.992 116.094 137.728 112.88C134.527 109.602 125.613 109.981 123.793 110.8Z" fill="url(#paint8_linear_486_805)" stroke="#263238" stroke-width="1.16947" stroke-miterlimit="10" stroke-linecap="round" stroke-linejoin="round"/>
<path d="M134.527 68.6986C134.527 68.6986 139.109 72.3541 139.548 74.434C139.988 76.5139 138.732 80.9887 138.732 80.9887L132.706 69.1398L134.527 68.6986Z" fill="#263238" stroke="#263238" stroke-width="1.16947" stroke-miterlimit="10" stroke-linecap="round" stroke-linejoin="round"/>
<path d="M133.083 66.8708C133.083 66.8708 141.369 84.8963 142.562 90.9469C143.754 96.9974 143.19 102.67 140.93 106.956C138.733 111.178 136.285 110.611 136.285 110.611V124.351C136.285 124.351 125.614 115.842 124.986 114.834C124.358 113.825 123.354 111.998 123.354 111.998C123.354 111.998 122.161 103.111 118.332 100.464C118.332 100.464 113.311 101.283 112.055 96.6192C110.863 91.9553 111.867 90.3166 115.068 89.9384C115.068 89.9384 112.432 83.2577 111.867 78.7828C111.239 74.3079 118.709 72.9214 123.166 70.0852C127.622 67.312 133.083 66.8708 133.083 66.8708Z" fill="white" stroke="#263238" stroke-width="1.16947" stroke-miterlimit="10" stroke-linecap="round" stroke-linejoin="round"/>
<path d="M136.347 110.611L132.393 109.098L136.096 115.905L136.347 110.611Z" fill="#263238" stroke="#263238" stroke-width="1.16947" stroke-miterlimit="10" stroke-linecap="round" stroke-linejoin="round"/>
<path d="M114.754 91.388C114.754 91.388 112.118 90.3796 109.293 86.724C106.468 83.0685 105.652 80.2323 109.481 74.1818C113.31 68.1313 126.994 62.4589 130.823 63.0262C134.652 63.6564 137.1 68.5095 132.455 71.5347C127.81 74.56 122.161 75.7575 122.161 75.7575C122.161 75.7575 124.358 73.9297 121.973 73.5516C119.525 73.1734 114.691 75.5684 115.131 77.5852C115.507 79.6021 118.583 78.9718 118.332 82.2492C118.144 85.4635 115.319 88.9299 116.323 90.1274C117.328 91.3249 119.776 92.3334 117.704 92.9636C115.758 93.5939 114.754 91.388 114.754 91.388Z" fill="#263238" stroke="#263238" stroke-width="1.16947" stroke-miterlimit="10" stroke-linecap="round" stroke-linejoin="round"/>
<path d="M128.878 94.6024L125.865 97.0604" stroke="#263238" stroke-width="1.16947" stroke-miterlimit="10" stroke-linecap="round" stroke-linejoin="round"/>
<path d="M127.434 96.2411C127.434 96.2411 131.263 99.8966 137.917 96.8714" stroke="#263238" stroke-width="1.16947" stroke-miterlimit="10" stroke-linecap="round" stroke-linejoin="round"/>
<path d="M128.878 97.4385C128.878 97.4385 130.07 100.086 133.334 100.905C136.536 101.724 134.966 98.0687 134.966 98.0687C134.966 98.0687 130.447 98.0687 128.878 97.4385Z" fill="#263238" stroke="#263238" stroke-width="1.16947" stroke-miterlimit="10" stroke-linecap="round" stroke-linejoin="round"/>
<path d="M125.363 85.2744C125.676 86.2198 125.614 87.1021 125.174 87.2282C124.735 87.3543 124.17 86.724 123.856 85.7786C123.542 84.8332 123.605 83.9508 124.044 83.8248C124.484 83.6357 125.049 84.329 125.363 85.2744Z" fill="#263238"/>
<path d="M135.845 82.2492C136.159 83.1945 136.096 84.0769 135.657 84.203C135.217 84.329 134.652 83.6988 134.338 82.7534C134.025 81.808 134.087 80.9256 134.527 80.7995C134.966 80.6105 135.531 81.2407 135.845 82.2492Z" fill="#263238"/>
<path d="M130.573 86.724L122.224 89.4972C121.534 89.7493 120.843 89.3711 120.592 88.6779L119.337 84.9593C119.086 84.266 119.462 83.5727 120.153 83.3206L128.501 80.5475C129.192 80.2954 129.882 80.6735 130.133 81.3668L131.389 85.0854C131.64 85.7787 131.263 86.535 130.573 86.724Z" stroke="#263238" stroke-width="1.16947" stroke-miterlimit="10" stroke-linecap="round" stroke-linejoin="round"/>
<path d="M130.008 80.7997L132.958 79.7913" stroke="#263238" stroke-width="1.16947" stroke-miterlimit="10" stroke-linecap="round" stroke-linejoin="round"/>
<path d="M119.462 85.0225L114.189 90.2536" stroke="#263238" stroke-width="1.16947" stroke-miterlimit="10" stroke-linecap="round" stroke-linejoin="round"/>
<path d="M142.938 76.703L139.047 80.0434" stroke="#263238" stroke-width="1.16947" stroke-miterlimit="10" stroke-linecap="round" stroke-linejoin="round"/>
<path d="M143.88 82.6905L135.531 85.4636C134.841 85.7157 134.15 85.3376 133.899 84.6443L132.644 80.9257C132.393 80.2325 132.769 79.5392 133.46 79.2871L141.809 76.5139C142.499 76.2618 143.189 76.64 143.441 77.3332L144.696 81.0518C144.947 81.7451 144.57 82.5014 143.88 82.6905Z" stroke="#263238" stroke-width="1.16947" stroke-miterlimit="10" stroke-linecap="round" stroke-linejoin="round"/>
<path d="M120.968 81.871C120.968 81.871 123.416 78.8457 126.994 79.2239" stroke="#263238" stroke-width="2.33894" stroke-miterlimit="10" stroke-linecap="round" stroke-linejoin="round"/>
<path d="M132.079 77.6482C132.079 77.6482 133.711 76.0096 136.724 76.8289" stroke="#263238" stroke-width="2.33894" stroke-miterlimit="10" stroke-linecap="round" stroke-linejoin="round"/>
<path d="M132.706 81.4929C132.706 81.4929 138.732 93.2158 138.167 94.0351C137.54 94.8545 133.522 94.0351 133.522 94.0351" fill="white"/>
<path d="M132.706 81.4929C132.706 81.4929 138.732 93.2158 138.167 94.0351C137.54 94.8545 133.522 94.0351 133.522 94.0351" stroke="#263238" stroke-width="1.16947" stroke-miterlimit="10" stroke-linecap="round" stroke-linejoin="round"/>
<path d="M103.895 127.628C103.895 127.628 100.442 127.628 99.4378 130.653C98.4335 133.679 88.9551 168.28 89.9594 169.289C90.9637 170.297 103.643 171.116 105.087 170.675C106.468 170.297 112.557 146.977 112.557 146.977" fill="url(#paint9_linear_486_805)"/>
<path d="M103.895 127.628C103.895 127.628 100.442 127.628 99.4378 130.653C98.4335 133.679 88.9551 168.28 89.9594 169.289C90.9637 170.297 103.643 171.116 105.087 170.675C106.468 170.297 112.557 146.977 112.557 146.977" stroke="#263238" stroke-width="1.16947" stroke-miterlimit="10" stroke-linecap="round" stroke-linejoin="round"/>
<path d="M108.916 169.919C108.916 169.919 109.732 165.885 106.28 164.246C102.827 162.608 97.2407 162.86 93.7883 165.444C90.3359 168.091 89.7709 167.461 88.9549 172.503C88.1389 177.545 91.5913 180.822 94.416 181.389C97.2407 182.02 99.626 182.587 103.078 179.183C106.468 175.78 108.916 169.919 108.916 169.919Z" fill="url(#paint10_linear_486_805)" stroke="#263238" stroke-width="1.16947" stroke-miterlimit="10" stroke-linecap="round" stroke-linejoin="round"/>
<path d="M130.133 148.616C130.133 148.616 128.752 179.562 123.479 191.095C123.479 191.095 128.501 192.734 136.786 191.915C145.072 191.095 152.73 186.684 152.73 186.684C152.73 186.684 155.555 169.666 156.936 161.41C158.317 153.091 159.133 148.49 159.133 148.49C159.133 148.49 157.313 149.876 147.018 150.506C136.786 151.011 130.133 148.616 130.133 148.616Z" fill="white" stroke="#263238" stroke-width="1.16947" stroke-miterlimit="10" stroke-linecap="round" stroke-linejoin="round"/>
<path d="M116.951 173.952C116.951 173.952 105.276 166.641 103.644 166.641C102.011 166.641 97.1781 168.28 95.1695 172.944C93.1608 177.608 93.3491 180.003 95.9855 180.822C98.6219 181.642 115.507 183.28 117.579 183.28C119.587 183.28 124.421 184.289 127.245 184.289C130.07 184.289 137.54 183.469 138.544 181.831C139.548 180.192 131.263 180.822 130.698 180.633C130.07 180.444 138.23 178.868 139.36 178.616C140.49 178.364 141.997 176.788 139.737 176.158C139.737 176.158 143.566 174.33 141.118 172.692L129.882 170.675L133.334 169.919C133.334 169.919 141.181 172.062 141.118 169.604C141.055 168.595 134.652 166.578 132.644 166.578C130.635 166.578 119.964 173.889 119.964 173.889H116.951V173.952Z" fill="white" stroke="#263238" stroke-width="1.16947" stroke-miterlimit="10" stroke-linecap="round" stroke-linejoin="round"/>
<path d="M139.737 176.158L129.443 175.339" stroke="#263238" stroke-width="1.16947" stroke-miterlimit="10" stroke-linecap="round" stroke-linejoin="round"/>
<path d="M244.376 129.519L242.869 133.616C242.618 134.372 241.991 134.876 241.237 135.002L221.276 138.027C219.958 138.216 219.205 139.54 219.581 140.99L226.612 169.919C226.988 171.368 228.306 172.377 229.562 172.188L277.142 164.94C278.46 164.751 279.214 163.427 278.837 161.977L270.363 127.124C269.986 125.674 268.668 124.666 267.413 124.855L246.008 128.132C245.255 128.258 244.69 128.763 244.376 129.519Z" fill="#5274B8"/>
<path opacity="0.3" d="M244.376 129.519L242.869 133.616C242.618 134.372 241.991 134.876 241.237 135.002L221.276 138.027C219.958 138.216 219.205 139.54 219.581 140.99L226.612 169.919C226.988 171.368 228.306 172.377 229.562 172.188L277.142 164.94C278.46 164.751 279.214 163.427 278.837 161.977L270.363 127.124C269.986 125.674 268.668 124.666 267.413 124.855L246.008 128.132C245.255 128.258 244.69 128.763 244.376 129.519Z" fill="#2B6BB4"/>
<path d="M234.144 87.1653C234.647 87.1653 235.086 87.1653 235.525 87.2283C238.601 82.9425 243.56 80.2324 249.209 80.2324C256.365 80.2324 262.454 84.7073 264.902 91.0099C270.363 91.9553 274.569 96.7453 274.569 102.481C274.569 108.909 269.359 114.141 262.956 114.141H234.144C226.737 114.141 220.711 108.09 220.711 100.653C220.711 93.2158 226.737 87.1653 234.144 87.1653Z" fill="url(#paint11_linear_486_805)"/>
<path d="M235.4 109.414V143.007H259.943V116.725L252.662 109.414H235.4Z" fill="#5274B8"/>
<path opacity="0.6" d="M235.4 109.414V143.007H259.943V116.725L252.662 109.414H235.4Z" fill="white"/>
<path opacity="0.4" d="M252.662 116.725V109.414L259.943 116.725H252.662Z" fill="#5274B8"/>
<path d="M236.171 172.071L234.433 172.334L234.489 172.708L236.227 172.445L236.171 172.071Z" fill="#5274B8"/>
<path d="M244.189 170.859L238.106 171.781L238.162 172.155L244.245 171.233L244.189 170.859Z" fill="#5274B8"/>
<path d="M253.164 132.796L250.904 136.578C250.464 137.271 249.774 137.775 249.021 137.838L229.06 140.864C227.741 141.053 226.8 142.313 226.8 143.574L227.992 169.982C228.055 171.305 229.122 172.188 230.441 171.998L278.021 164.75C279.339 164.561 280.281 163.301 280.281 162.04L278.9 130.212C278.837 128.889 277.77 128.006 276.452 128.195L255.047 131.473C254.231 131.662 253.54 132.103 253.164 132.796Z" fill="url(#paint12_linear_486_805)"/>
<path d="M253.854 104.561C253.729 104.561 253.603 104.498 253.54 104.435C253.352 104.245 253.352 103.993 253.54 103.804C256.804 100.527 256.804 95.2327 253.54 91.9554C251.971 90.3797 249.9 89.4974 247.64 89.4974C245.443 89.4974 243.309 90.3797 241.739 91.9554C240.17 93.531 239.291 95.6109 239.291 97.8798C239.291 100.086 240.17 102.229 241.739 103.804C241.928 103.993 241.928 104.245 241.739 104.435C241.551 104.624 241.3 104.624 241.112 104.435C239.354 102.67 238.413 100.401 238.413 97.8798C238.413 95.4218 239.354 93.0898 241.112 91.3251C242.869 89.5604 245.129 88.615 247.64 88.615C250.088 88.615 252.411 89.5604 254.168 91.3251C257.746 94.9176 257.746 100.779 254.168 104.372C254.043 104.498 253.98 104.561 253.854 104.561Z" fill="white"/>
<path d="M251.344 107.145V97.5017C251.344 96.6193 250.653 95.926 249.774 95.926H245.506C244.627 95.926 243.937 96.6193 243.937 97.5017V107.145H242.367L247.64 111.683L252.913 107.145H251.344Z" fill="white"/>
<path d="M108.488 26.7461C109.125 19.1497 103.508 12.4731 95.9427 11.8334C88.3771 11.1937 81.7275 16.8332 81.0904 24.4295C80.4532 32.0259 86.0699 38.7025 93.6355 39.3422C101.201 39.9819 107.851 34.3425 108.488 26.7461Z" fill="#2B6BB4"/>
<path d="M98.2454 20.6094H97.7433C97.3039 20.6094 96.9272 20.2313 96.9272 19.7901V19.538C96.9272 19.0968 97.3039 18.7186 97.7433 18.7186H98.2454C98.6848 18.7186 99.0615 19.0968 99.0615 19.538V19.7901C99.0615 20.2313 98.6848 20.6094 98.2454 20.6094Z" fill="#373737"/>
<path d="M101.07 21.9329L100.693 21.5548C100.38 21.2396 100.38 20.7354 100.693 20.4203L100.882 20.2312C101.196 19.9161 101.698 19.9161 102.012 20.2312L102.388 20.6094C102.702 20.9245 102.702 21.4287 102.388 21.7439L102.2 21.9329C101.886 22.3111 101.384 22.3111 101.07 21.9329Z" fill="#373737"/>
<path d="M102.074 24.9583V24.4541C102.074 24.0129 102.451 23.6348 102.89 23.6348H103.142C103.581 23.6348 103.958 24.0129 103.958 24.4541V24.9583C103.958 25.3995 103.581 25.7777 103.142 25.7777H102.89C102.451 25.7777 102.074 25.3995 102.074 24.9583Z" fill="#373737"/>
<path d="M100.693 27.7314L101.07 27.3533C101.384 27.0382 101.886 27.0382 102.2 27.3533L102.388 27.5424C102.702 27.8575 102.702 28.3617 102.388 28.6768L102.012 29.055C101.698 29.3701 101.196 29.3701 100.882 29.055L100.693 28.8659C100.38 28.6138 100.38 28.0466 100.693 27.7314Z" fill="#373737"/>
<path d="M97.7433 28.8029H98.2454C98.6848 28.8029 99.0615 29.181 99.0615 29.6222V29.8743C99.0615 30.3155 98.6848 30.6936 98.2454 30.6936H97.7433C97.3039 30.6936 96.9272 30.3155 96.9272 29.8743V29.6222C96.9272 29.118 97.3039 28.8029 97.7433 28.8029Z" fill="#373737"/>
<path d="M94.9186 27.4163L95.2952 27.7944C95.6091 28.1096 95.6091 28.6138 95.2952 28.9289L95.1069 29.118C94.793 29.4331 94.2909 29.4331 93.977 29.118L93.6004 28.7398C93.2865 28.4247 93.2865 27.9205 93.6004 27.6054L93.7887 27.4163C94.1025 27.1011 94.6047 27.1011 94.9186 27.4163Z" fill="#373737"/>
<path d="M93.9141 24.454V24.9582C93.9141 25.3994 93.5375 25.7776 93.0981 25.7776H92.847C92.4076 25.7776 92.031 25.3994 92.031 24.9582V24.454C92.031 24.0128 92.4076 23.6347 92.847 23.6347H93.0981C93.5375 23.5717 93.9141 23.9498 93.9141 24.454Z" fill="#373737"/>
<path d="M95.2952 21.618L94.9186 21.9962C94.6047 22.3113 94.1025 22.3113 93.7887 21.9962L93.6004 21.8071C93.2865 21.492 93.2865 20.9877 93.6004 20.6726L93.977 20.2945C94.2909 19.9793 94.793 19.9793 95.1069 20.2945L95.2952 20.4835C95.6091 20.7356 95.6091 21.3029 95.2952 21.618Z" fill="#373737"/>
<path d="M97.9944 19.9792C95.4208 19.9792 93.2866 22.1221 93.2866 24.7062C93.2866 27.2903 95.4208 29.4332 97.9944 29.4332C100.568 29.4332 102.702 27.2903 102.702 24.7062C102.702 22.0591 100.568 19.9792 97.9944 19.9792ZM97.9944 26.7861C96.8646 26.7861 95.923 25.8407 95.923 24.7062C95.923 23.5717 96.8646 22.6263 97.9944 22.6263C99.1243 22.6263 100.066 23.5717 100.066 24.7062C100.066 25.8407 99.1243 26.7861 97.9944 26.7861Z" fill="#373737"/>
<path d="M97.994 20.9246C95.9226 20.9246 94.2905 22.6263 94.2905 24.6431C94.2905 26.723 95.9853 28.3617 97.994 28.3617C100.065 28.3617 101.697 26.6599 101.697 24.6431C101.697 22.6263 100.065 20.9246 97.994 20.9246ZM97.994 27.7944C96.2992 27.7944 94.9182 26.4078 94.9182 24.7061C94.9182 23.0044 96.2992 21.6178 97.994 21.6178C99.6888 21.6178 101.07 23.0044 101.07 24.7061C101.07 26.4078 99.6888 27.7944 97.994 27.7944Z" fill="white"/>
<path d="M90.7754 25.6516L90.4616 25.5256C90.1477 25.3995 90.0222 25.0844 90.1477 24.7693L90.2105 24.6432C90.336 24.3281 90.6499 24.202 90.9637 24.3281L91.2776 24.4541C91.5914 24.5802 91.717 24.8953 91.5914 25.2105L91.5287 25.3365C91.4031 25.6516 91.0893 25.7777 90.7754 25.6516Z" fill="#373737"/>
<path d="M92.3452 27.2275L92.2197 26.9124C92.0941 26.5972 92.2197 26.2821 92.4707 26.1561L92.5963 26.093C92.9101 25.967 93.224 26.093 93.3495 26.3451L93.4751 26.6603C93.6006 26.9754 93.4751 27.2905 93.224 27.4166L93.0985 27.4796C92.7846 27.6687 92.4707 27.5426 92.3452 27.2275Z" fill="#373737"/>
<path d="M92.2824 29.4332L92.4079 29.1181C92.5335 28.8029 92.8473 28.6769 93.1612 28.8029L93.2867 28.866C93.6006 28.992 93.7261 29.3072 93.6006 29.6223L93.475 29.9374C93.3495 30.2525 93.0356 30.3786 92.7218 30.2525L92.5962 30.1895C92.3452 30.0635 92.1568 29.7483 92.2824 29.4332Z" fill="#373737"/>
<path d="M90.7129 30.9459L91.0268 30.8198C91.3406 30.6938 91.6545 30.8198 91.78 31.0719L91.8428 31.198C91.9684 31.5131 91.8428 31.8283 91.5917 31.9543L91.2779 32.0804C90.964 32.2064 90.6502 32.0804 90.5246 31.8283L90.4618 31.7022C90.3363 31.4501 90.4619 31.135 90.7129 30.9459Z" fill="#373737"/>
<path d="M88.516 30.9458L88.8298 31.0718C89.1437 31.1979 89.2692 31.513 89.1437 31.8281L89.0809 31.9542C88.9554 32.2693 88.6415 32.3954 88.3277 32.2693L88.0138 32.1433C87.7 32.0172 87.5744 31.7021 87.7 31.3869L87.7627 31.2609C87.8883 31.0088 88.2649 30.8197 88.516 30.9458Z" fill="#373737"/>
<path d="M87.009 29.3701L87.1345 29.6852C87.26 30.0004 87.1345 30.3155 86.8834 30.4416L86.7579 30.5046C86.444 30.6306 86.1302 30.5046 86.0046 30.2525L85.8791 29.9374C85.7535 29.6222 85.8791 29.3071 86.1302 29.181L86.2557 29.118C86.5696 28.9289 86.8834 29.055 87.009 29.3701Z" fill="#373737"/>
<path d="M87.0721 27.1642L86.9466 27.4793C86.821 27.7944 86.5072 27.9205 86.1933 27.7944L86.0678 27.7314C85.7539 27.6053 85.6284 27.2902 85.7539 26.9751L85.8795 26.6599C86.005 26.3448 86.3189 26.2188 86.6327 26.3448L86.7583 26.4078C87.0093 26.5339 87.1349 26.849 87.0721 27.1642Z" fill="#373737"/>
<path d="M88.6413 25.6517L88.3274 25.7777C88.0136 25.9038 87.6997 25.7777 87.5742 25.5256L87.5114 25.3996C87.3859 25.0845 87.5114 24.7693 87.7625 24.6433L88.0764 24.5172C88.3902 24.3912 88.7041 24.5172 88.8296 24.7693L88.8924 24.8954C89.0179 25.1475 88.8924 25.5256 88.6413 25.6517Z" fill="#373737"/>
<path d="M90.7758 25.2103C89.081 24.58 87.1979 25.4624 86.5702 27.2271C85.9425 28.9288 86.8212 30.8196 88.5788 31.4499C90.2736 32.0801 92.1568 31.1978 92.7845 29.433C93.3494 27.7313 92.4706 25.8405 90.7758 25.2103ZM89.2065 29.6851C88.4533 29.433 88.0767 28.5507 88.3277 27.7943C88.5788 27.038 89.4576 26.6599 90.2109 26.912C90.9641 27.1641 91.3407 28.0464 91.0897 28.8028C90.7758 29.5591 89.9598 29.9372 89.2065 29.6851Z" fill="#373737"/>
<path d="M90.5244 25.8407C89.1434 25.3365 87.6997 26.0297 87.1975 27.4163C86.6954 28.8029 87.3859 30.2525 88.7668 30.7567C90.1478 31.2609 91.5915 30.5676 92.0937 29.1811C92.5958 27.8575 91.9054 26.3449 90.5244 25.8407ZM88.9551 30.3155C87.8253 29.9374 87.2603 28.6768 87.6369 27.5424C88.0136 26.4079 89.269 25.8407 90.3989 26.2188C91.5287 26.597 92.0937 27.8575 91.717 28.992C91.2776 30.1895 90.085 30.7567 88.9551 30.3155Z" fill="white"/>
<path d="M284.76 36.2394C291.691 27.6757 290.396 15.0918 281.867 8.13253C273.338 1.17321 260.805 2.47383 253.874 11.0375C246.943 19.6012 248.238 32.1851 256.767 39.1444C265.296 46.1037 277.829 44.8031 284.76 36.2394Z" fill="#FFDB59"/>
<path d="M272.52 13.2389L266.58 21.9871L271.818 25.5728L277.758 16.8247L272.52 13.2389Z" fill="#4DB7B4"/>
<path d="M266.408 27.9206L266.157 23.6348L265.906 19.286L270.237 22.2482L274.568 25.2105L270.488 26.5971L266.408 27.9206Z" fill="#4DB7B4"/>
<path d="M274.569 27.9207L271.367 32.6477L260.194 25.0215L263.458 20.2316L260.194 18.0256L254.67 26.219L272.246 38.257L277.833 30.0636L274.569 27.9207Z" fill="#373737"/>
<path d="M132.057 240.913C138.228 235.68 139.005 226.414 133.793 220.218C128.58 214.021 119.352 213.241 113.181 218.474C107.01 223.708 106.232 232.974 111.445 239.17C116.657 245.366 125.885 246.147 132.057 240.913Z" fill="#373737"/>
<path d="M118.583 236.475C120.109 236.475 121.345 235.233 121.345 233.701C121.345 232.17 120.109 230.928 118.583 230.928C117.058 230.928 115.821 232.17 115.821 233.701C115.821 235.233 117.058 236.475 118.583 236.475Z" fill="white"/>
<path d="M122.538 226.138C124.063 226.138 125.3 224.897 125.3 223.365C125.3 221.833 124.063 220.592 122.538 220.592C121.012 220.592 119.776 221.833 119.776 223.365C119.776 224.897 121.012 226.138 122.538 226.138Z" fill="white"/>
<path d="M121.14 223.432L117.253 233.139L119.583 234.08L123.469 224.373L121.14 223.432Z" fill="white"/>
<path d="M131.234 231.191C132.023 229.88 131.603 228.175 130.297 227.384C128.991 226.592 127.294 227.013 126.505 228.325C125.717 229.636 126.137 231.34 127.443 232.132C128.748 232.923 130.446 232.502 131.234 231.191Z" fill="white"/>
<path d="M127.912 228.815L118.245 232.718L119.181 235.057L128.849 231.154L127.912 228.815Z" fill="white"/>
<path d="M251.834 226.546C252.307 220.648 247.928 215.481 242.053 215.006C236.179 214.532 231.033 218.929 230.56 224.827C230.088 230.726 234.467 235.892 240.341 236.367C246.216 236.841 251.361 232.445 251.834 226.546Z" fill="#3E70B7"/>
<path d="M246.447 221.663H239.856V220.97C239.856 220.529 239.479 220.151 239.04 220.151H235.901C235.462 220.151 235.085 220.529 235.085 220.97V222.482V224.751V230.361C235.085 230.802 235.462 231.18 235.901 231.18H246.447C246.886 231.18 247.263 230.802 247.263 230.361V222.482C247.263 222.041 246.886 221.663 246.447 221.663Z" fill="#E5E64E"/>
<path d="M245.944 222.861H236.466V227.336H245.944V222.861Z" fill="white"/>
<path d="M245.317 223.428H237.031V223.68H245.317V223.428Z" fill="#373737"/>
<path d="M245.317 224.121H237.031V224.373H245.317V224.121Z" fill="#373737"/>
<path d="M245.317 224.815H237.031V225.067H245.317V224.815Z" fill="#373737"/>
<path d="M235.085 225.571V230.424C235.085 230.865 235.462 231.243 235.901 231.243H246.447C246.886 231.243 247.263 230.865 247.263 230.424V225.571H235.085Z" fill="#E0CD27"/>
<path d="M200.88 42.0431C201.164 38.504 198.536 35.4041 195.011 35.1193C191.487 34.8345 188.399 37.4726 188.116 41.0117C187.832 44.5508 190.459 47.6507 193.984 47.9355C197.509 48.2203 200.596 45.5822 200.88 42.0431Z" fill="#373737"/>
<path d="M197.423 44.5594C197.423 44.7485 197.298 44.9376 197.047 44.9376H191.899C191.711 44.9376 191.523 44.8115 191.523 44.5594V38.5089C191.523 38.3198 191.648 38.1307 191.899 38.1307H197.047C197.235 38.1307 197.423 38.2568 197.423 38.5089V44.5594Z" fill="white"/>
<path d="M193.155 39.139H192.464V39.8329H193.155V39.139Z" fill="#4DB7B4"/>
<path d="M196.544 39.3282H193.657V39.6434H196.544V39.3282Z" fill="#4DB7B4"/>
<path d="M193.155 40.5259H192.464V41.2197H193.155V40.5259Z" fill="#4DB7B4"/>
<path d="M196.544 40.7148H193.657V41.03H196.544V40.7148Z" fill="#4DB7B4"/>
<path d="M193.155 41.8495H192.464V42.5433H193.155V41.8495Z" fill="#4DB7B4"/>
<path d="M196.544 42.1014H193.657V42.4166H196.544V42.1014Z" fill="#4DB7B4"/>
<path d="M193.155 43.2358H192.464V43.9297H193.155V43.2358Z" fill="#4DB7B4"/>
<path d="M196.544 43.4249H193.657V43.7401H196.544V43.4249Z" fill="#4DB7B4"/>
</g>
<defs>
<linearGradient id="paint0_linear_486_805" x1="24.9603" y1="196.467" x2="41.2053" y2="196.467" gradientUnits="userSpaceOnUse">
<stop stop-color="#0B77BE"/>
<stop offset="1" stop-color="#4869B2"/>
</linearGradient>
<linearGradient id="paint1_linear_486_805" x1="203.591" y1="209.43" x2="209.335" y2="248.941" gradientUnits="userSpaceOnUse">
<stop stop-color="#FBAA1D"/>
<stop offset="1" stop-color="#FFDB59"/>
</linearGradient>
<linearGradient id="paint2_linear_486_805" x1="177.744" y1="241.474" x2="182.13" y2="271.647" gradientUnits="userSpaceOnUse">
<stop stop-color="#FBAA1D"/>
<stop offset="1" stop-color="#FFDB59"/>
</linearGradient>
<linearGradient id="paint3_linear_486_805" x1="149.346" y1="236.675" x2="151.896" y2="254.219" gradientUnits="userSpaceOnUse">
<stop stop-color="#FBAA1D"/>
<stop offset="1" stop-color="#FFDB59"/>
</linearGradient>
<linearGradient id="paint4_linear_486_805" x1="47.275" y1="215.064" x2="71.7582" y2="215.064" gradientUnits="userSpaceOnUse">
<stop stop-color="#0B77BE"/>
<stop offset="1" stop-color="#4869B2"/>
</linearGradient>
<linearGradient id="paint5_linear_486_805" x1="199.451" y1="23.6114" x2="211.686" y2="23.6114" gradientUnits="userSpaceOnUse">
<stop stop-color="#0B77BE"/>
<stop offset="1" stop-color="#4869B2"/>
</linearGradient>
<linearGradient id="paint6_linear_486_805" x1="101.45" y1="154.831" x2="169.168" y2="154.831" gradientUnits="userSpaceOnUse">
<stop stop-color="#00AEEF"/>
<stop offset="1" stop-color="#2E3192"/>
</linearGradient>
<linearGradient id="paint7_linear_486_805" x1="153.634" y1="180.08" x2="172.783" y2="180.08" gradientUnits="userSpaceOnUse">
<stop stop-color="#00AEEF"/>
<stop offset="1" stop-color="#2E3192"/>
</linearGradient>
<linearGradient id="paint8_linear_486_805" x1="119.186" y1="120.338" x2="143.975" y2="120.338" gradientUnits="userSpaceOnUse">
<stop stop-color="#00AEEF"/>
<stop offset="1" stop-color="#2E3192"/>
</linearGradient>
<linearGradient id="paint9_linear_486_805" x1="89.8867" y1="149.21" x2="112.535" y2="149.21" gradientUnits="userSpaceOnUse">
<stop stop-color="#00AEEF"/>
<stop offset="1" stop-color="#2E3192"/>
</linearGradient>
<linearGradient id="paint10_linear_486_805" x1="88.8341" y1="172.553" x2="108.989" y2="172.553" gradientUnits="userSpaceOnUse">
<stop stop-color="#00AEEF"/>
<stop offset="1" stop-color="#2E3192"/>
</linearGradient>
<linearGradient id="paint11_linear_486_805" x1="220.721" y1="97.1746" x2="274.575" y2="97.1746" gradientUnits="userSpaceOnUse">
<stop stop-color="#2B6BB4"/>
<stop offset="1" stop-color="#283071"/>
</linearGradient>
<linearGradient id="paint12_linear_486_805" x1="226.805" y1="150.17" x2="280.234" y2="150.17" gradientUnits="userSpaceOnUse">
<stop stop-color="#2B6BB4"/>
<stop offset="1" stop-color="#283071"/>
</linearGradient>
<clipPath id="clip0_486_805">
<rect width="386.104" height="273.975" fill="white" transform="translate(0.448242)"/>
</clipPath>
</defs>
</svg>
