<svg width="33" height="33" viewBox="0 0 33 33" fill="none" xmlns="http://www.w3.org/2000/svg">
<path d="M28.4364 13.6811C29.1324 12.8982 30.333 11.715 30.2689 11.2331C30.3182 10.7645 30.0645 10.3242 29.5571 9.44369L28.8415 8.20162C28.3002 7.26227 28.0295 6.79258 27.569 6.6053C27.1086 6.418 26.5878 6.5658 25.5463 6.86137L23.7768 7.35974C23.1118 7.51307 22.4143 7.42609 21.807 7.11412L21.3185 6.83228C20.7979 6.4988 20.3974 6.0071 20.1757 5.42915L19.6914 3.98293C19.3732 3.02592 19.214 2.5474 18.8349 2.2737C18.4559 2 17.9525 2 16.9457 2H15.3293C14.3224 2 13.8189 2 13.4401 2.2737C13.0611 2.5474 12.9019 3.02592 12.5834 3.98293L12.0993 5.42915C11.8776 6.0071 11.4771 6.4988 10.9564 6.83228L10.4679 7.11412C9.86078 7.42609 9.16304 7.51307 8.49807 7.35974L6.72879 6.86137C5.68726 6.5658 5.16642 6.418 4.7059 6.6053C4.24538 6.79258 3.97481 7.26227 3.43352 8.20162L2.7178 9.44369C2.21046 10.3242 1.95686 10.7645 2.00601 11.2331C2.05531 11.7018 2.3949 12.0795 3.07407 12.8348L4.56916 14.5062C4.93442 14.9687 5.19397 15.7749 5.19397 16.4996C5.19397 17.2249 4.93456 18.0308 4.56916 18.4935L3.07407 20.1649C2.3949 20.9203 2.05531 21.298 2.00601 21.7666C1.95686 22.2354 2.21046 22.6756 2.7178 23.5561L3.43352 24.7981C3.97481 25.7374 4.24538 26.2072 4.7059 26.3944C5.16642 26.5818 5.68726 26.434 6.72879 26.1384L8.49807 25.64C9.16318 25.4866 9.86092 25.5737 10.4682 25.8858L10.9565 26.1677C11.4772 26.5012 11.8776 26.9927 12.0991 27.5707L12.5834 29.017C12.9019 29.974 13.0779 30.4715 13.368 30.6809C13.455 30.7439 13.803 31.0289 14.6556 31.0028" stroke="#003CF9" stroke-width="2.175" stroke-linecap="round"/>
<path d="M20.85 24.0689C20.85 24.0689 22.3 24.4807 23.025 25.9307C23.025 25.9307 24.6145 22.3057 26.6616 21.5807" stroke="#003CF9" stroke-width="2.175" stroke-linecap="round" stroke-linejoin="round"/>
<path d="M31 23.75C31 27.754 27.754 31 23.75 31C19.746 31 16.5 27.754 16.5 23.75C16.5 19.746 19.746 16.5 23.75 16.5C27.754 16.5 31 19.746 31 23.75Z" stroke="#003CF9" stroke-width="2.175" stroke-linecap="round"/>
<path d="M19.6319 12.7939C18.4139 11.8021 17.4569 11.4193 16.0649 11.4193C13.4548 11.4541 11.071 13.6103 11.071 16.4131C11.071 17.9584 11.5408 18.9361 12.4282 19.9627" stroke="#003CF9" stroke-width="2.175" stroke-linecap="round"/>
</svg>
